<svg width="301" height="64" viewBox="0 0 301 64" fill="none" xmlns="http://www.w3.org/2000/svg">
<path d="M290.448 13.4249V8.40538H288.667V7.76099H292.949V8.40538H291.177V13.4249H290.448ZM294.032 13.4249V7.76099H295.177L297.161 12.5261L299.145 7.76099H300.29V13.4249H299.56V8.50713L297.483 13.4249H296.839L294.761 8.50713V13.4249H294.032Z" fill="white"/>
<path d="M3.72028 50.52V15.1207H15.9616L24.2815 40.5574L32.6014 15.1207H44.8426V50.52H37.1057V22.3808L27.6201 50.52H20.943L11.4572 22.3808V50.52H3.72028ZM67.4791 51.05C62.5684 51.05 58.7529 49.8311 56.0326 47.3935C53.3123 44.9205 51.9522 41.0873 51.9522 35.894V15.1207H59.6891V35.894C59.6891 37.7664 59.9718 39.3209 60.537 40.5574C61.1376 41.7939 62.0208 42.7301 63.1867 43.366C64.3525 44.0019 65.7833 44.3199 67.4791 44.3199C69.2102 44.3199 70.641 44.0019 71.7715 43.366C72.9374 42.7301 73.8029 41.7939 74.3682 40.5574C74.9688 39.3209 75.2691 37.7664 75.2691 35.894V15.1207H83.006V35.894C83.006 41.0873 81.6459 44.9205 78.9256 47.3935C76.2053 49.8311 72.3898 51.05 67.4791 51.05ZM90.0926 50.52V15.1207H97.8296V43.7899H113.198V50.52H90.0926ZM118.711 50.52V15.1207H126.448V50.52H118.711ZM135.152 50.52V15.1207H136.848V31.4956H161.436V15.1207H163.132V50.52H161.436V33.0854H136.848V50.52H135.152ZM188.872 51.05C185.269 51.05 182.177 50.2727 179.598 48.7183C177.055 47.1285 175.094 44.9734 173.716 42.2531C172.374 39.4975 171.702 36.3533 171.702 32.8204C171.702 29.2875 172.374 26.1609 173.716 23.4406C175.094 20.685 177.055 18.53 179.598 16.9755C182.177 15.3857 185.269 14.5908 188.872 14.5908C192.476 14.5908 195.549 15.3857 198.093 16.9755C200.672 18.53 202.633 20.685 203.975 23.4406C205.353 26.1609 206.042 29.2875 206.042 32.8204C206.042 36.3533 205.353 39.4975 203.975 42.2531C202.633 44.9734 200.672 47.1285 198.093 48.7183C195.549 50.2727 192.476 51.05 188.872 51.05ZM188.872 49.4602C192.087 49.4602 194.843 48.7713 197.139 47.3935C199.435 45.9803 201.184 44.0196 202.385 41.5112C203.622 39.0029 204.24 36.106 204.24 32.8204C204.24 29.4995 203.622 26.6026 202.385 24.1296C201.184 21.6212 199.435 19.6781 197.139 18.3003C194.843 16.8872 192.087 16.1806 188.872 16.1806C185.657 16.1806 182.902 16.8872 180.605 18.3003C178.309 19.6781 176.542 21.6212 175.306 24.1296C174.105 26.6026 173.504 29.4995 173.504 32.8204C173.504 36.106 174.105 39.0029 175.306 41.5112C176.542 44.0196 178.309 45.9803 180.605 47.3935C182.902 48.7713 185.657 49.4602 188.872 49.4602ZM214.641 50.52V15.1207H217.238L233.295 48.4533L249.352 15.1207H251.948V50.52H250.253V17.0285L234.143 50.52H232.447L216.337 17.0285V50.52H214.641ZM262.149 50.52V15.1207H284.83V16.7105H263.845V31.4956H283.24V33.0854H263.845V48.9303H284.83V50.52H262.149Z" fill="white"/>
</svg>
