<svg width="190" height="38" viewBox="0 0 190 38" fill="none" xmlns="http://www.w3.org/2000/svg">
<path d="M2.144 30V8.624H9.536L14.56 23.984L19.584 8.624H26.976V30H22.304V13.008L16.576 30H12.544L6.816 13.008V30H2.144ZM40.645 30.32C37.6797 30.32 35.3757 29.584 33.733 28.112C32.0903 26.6187 31.269 24.304 31.269 21.168V8.624H35.941V21.168C35.941 22.2987 36.1117 23.2373 36.453 23.984C36.8157 24.7307 37.349 25.296 38.053 25.68C38.757 26.064 39.621 26.256 40.645 26.256C41.6903 26.256 42.5543 26.064 43.237 25.68C43.941 25.296 44.4637 24.7307 44.805 23.984C45.1677 23.2373 45.349 22.2987 45.349 21.168V8.624H50.021V21.168C50.021 24.304 49.1997 26.6187 47.557 28.112C45.9143 29.584 43.6103 30.32 40.645 30.32ZM54.3003 30V8.624H58.9723V25.936H68.2523V30H54.3003ZM71.5815 30V8.624H76.2535V30H71.5815ZM81.2855 30V8.624H83.1735V18.16H96.7415V8.624H98.6295V30H96.7415V19.856H83.1735V30H81.2855ZM113.949 30.32C111.751 30.32 109.853 29.8507 108.253 28.912C106.674 27.952 105.458 26.6507 104.605 25.008C103.773 23.344 103.357 21.4453 103.357 19.312C103.357 17.1787 103.773 15.2907 104.605 13.648C105.458 11.984 106.674 10.6827 108.253 9.744C109.853 8.784 111.751 8.304 113.949 8.304C116.146 8.304 118.034 8.784 119.613 9.744C121.191 10.6827 122.407 11.984 123.261 13.648C124.114 15.2907 124.541 17.1787 124.541 19.312C124.541 21.4453 124.114 23.344 123.261 25.008C122.407 26.6507 121.191 27.952 119.613 28.912C118.034 29.8507 116.146 30.32 113.949 30.32ZM113.949 28.624C115.741 28.624 117.277 28.24 118.557 27.472C119.858 26.6827 120.85 25.5947 121.533 24.208C122.237 22.8 122.589 21.168 122.589 19.312C122.589 17.456 122.237 15.8347 121.533 14.448C120.85 13.04 119.858 11.952 118.557 11.184C117.277 10.3947 115.741 10 113.949 10C112.157 10 110.61 10.3947 109.309 11.184C108.029 11.952 107.037 13.04 106.333 14.448C105.65 15.8347 105.309 17.456 105.309 19.312C105.309 21.168 105.65 22.8 106.333 24.208C107.037 25.5947 108.029 26.6827 109.309 27.472C110.61 28.24 112.157 28.624 113.949 28.624ZM129.286 30V8.624H132.23L140.806 27.76L149.414 8.624H152.358V30H150.47V10.544L141.67 30H139.942L131.174 10.608V30H129.286ZM158.067 30V8.624H172.211V10.288H159.955V18.192H171.251V19.824H159.955V28.336H172.211V30H158.067Z" fill="white"/>
<path d="M177.555 10V4.08H175.455V3.32H180.505V4.08H178.415V10H177.555ZM181.782 10V3.32H183.132L185.472 8.94L187.812 3.32H189.162V10H188.302V4.2L185.852 10H185.092L182.642 4.2V10H181.782Z" fill="white"/>
</svg>
